<svg xmlns="http://www.w3.org/2000/svg" width="60" height="60" viewBox="0 0 60 60">
  <g id="grain" transform="translate(-0.001)">
    <path id="Path_9276" data-name="Path 9276" d="M271,361H242.762A1.757,1.757,0,0,0,241,362.754a15.879,15.879,0,1,0,31.758,0A1.757,1.757,0,0,0,271,361Zm0,0" transform="translate(-212.76 -318.692)" fill="#ff8f00"/>
    <path id="Path_9277" data-name="Path 9277" d="M25.491,129.672a19.16,19.16,0,0,1-.76-5.273,1.758,1.758,0,1,1-3.516,0v-1.76c-.1,0-.192.009-.3.009a7.8,7.8,0,0,1-5.56-1.924c-2.647-2.645-1.826-7.277-1.725-7.8a1.756,1.756,0,0,1,1.385-1.385l.029-.005c-2.227-2.686-1.511-6.9-1.415-7.4a1.756,1.756,0,0,1,1.385-1.386,12.724,12.724,0,0,1,3.434-.125,6.148,6.148,0,0,1-.751-2.837c0-3.742,3.853-6.438,4.293-6.732a1.758,1.758,0,0,1,1.961,0c.439.3,4.293,2.99,4.293,6.732a6.149,6.149,0,0,1-.751,2.837,12.72,12.72,0,0,1,3.434.125,1.756,1.756,0,0,1,1.385,1.386c.1.5.812,4.713-1.415,7.4l.029.005a1.756,1.756,0,0,1,1.385,1.385,11.455,11.455,0,0,1-.333,5.554l5.871-5.871a8.732,8.732,0,0,1,6.214-2.574,8.889,8.889,0,0,1,1.754.177A69.77,69.77,0,0,0,42.965,91H2.863a66.821,66.821,0,0,0,0,38.672Zm0,0" transform="translate(-0.003 -80.336)" fill="#ff8f00"/>
    <path id="Path_9278" data-name="Path 9278" d="M211.9,220.535a4.862,4.862,0,0,0-.882,3.37,3.452,3.452,0,0,0,4.252-4.254A4.863,4.863,0,0,0,211.9,220.535Zm0,0" transform="translate(-186.288 -193.908)" fill="#ff8f00"/>
    <path id="Path_9279" data-name="Path 9279" d="M211.3,360.986c-.107,0-.2-.007-.3-.009v1.76a5.215,5.215,0,0,1,.322-1.752Zm0,0" transform="translate(-186.276 -318.674)" fill="#ff8f00"/>
    <path id="Path_9280" data-name="Path 9280" d="M2.43,7.148H43.392l2.244-4.6A1.758,1.758,0,0,0,44.064,0H1.759A1.758,1.758,0,0,0,.187,2.544Zm0,0" transform="translate(0)" fill="#ff8f00"/>
    <path id="Path_9281" data-name="Path 9281" d="M211.9,295.548a4.862,4.862,0,0,0-.882,3.37c1.122.009,2.6-.119,3.368-.884a4.85,4.85,0,0,0,.884-3.37A4.937,4.937,0,0,0,211.9,295.548Zm0,0" transform="translate(-186.288 -260.132)" fill="#ff8f00"/>
    <path id="Path_9282" data-name="Path 9282" d="M26.867,451H2.43L.187,455.6a1.758,1.758,0,0,0,1.572,2.544H32.981A19.866,19.866,0,0,1,26.867,451Zm0,0" transform="translate(0 -398.145)" fill="#ff8f00"/>
    <path id="Path_9283" data-name="Path 9283" d="M145.531,298.03c.769.77,2.264.9,3.37.882a4.84,4.84,0,0,0-.884-3.368,4.918,4.918,0,0,0-3.37-.884A4.847,4.847,0,0,0,145.531,298.03Zm0,0" transform="translate(-127.692 -260.128)" fill="#ff8f00"/>
    <path id="Path_9284" data-name="Path 9284" d="M181,143.357a4.855,4.855,0,0,0,1.76,3.006,4.842,4.842,0,0,0,1.756-3.006,4.855,4.855,0,0,0-1.76-3.006A4.84,4.84,0,0,0,181,143.357Zm0,0" transform="translate(-159.792 -123.904)" fill="#ff8f00"/>
    <path id="Path_9285" data-name="Path 9285" d="M148.017,220.527a4.836,4.836,0,0,0-3.37-.884A3.451,3.451,0,0,0,148.9,223.9,4.841,4.841,0,0,0,148.017,220.527Zm0,0" transform="translate(-127.692 -193.9)" fill="#ff8f00"/>
    <path id="Path_9286" data-name="Path 9286" d="M313.82,284.985l-4.031,4.031h15.518l-4.031-4.031A5.277,5.277,0,0,0,313.82,284.985Zm0,0" transform="translate(-273.485 -250.226)" fill="#ff8f00"/>
  </g>
</svg>
