<svg xmlns="http://www.w3.org/2000/svg" width="60" height="60" viewBox="0 0 60 60">
  <g id="ITOucc.tif" transform="translate(-2502.468 -838.501)">
    <g id="Group_3710" data-name="Group 3710" transform="translate(2502.468 838.501)">
      <path id="Path_9303" data-name="Path 9303" d="M2502.468,875.06a10.883,10.883,0,0,1,3.161-3.146,37.652,37.652,0,0,1,8.061-4.447,34.947,34.947,0,0,0,17.823-17.9,38.5,38.5,0,0,1,4.327-7.861,29.422,29.422,0,0,1,2.271-2.6,4.2,4.2,0,0,1,.916-.6h1.055a2.428,2.428,0,0,1,1.254,1.224,1.762,1.762,0,0,1-.365,1.96c-2.7,2.627-4.338,5.906-5.849,9.285a39.041,39.041,0,0,1-20.713,20.441,27.367,27.367,0,0,0-7.24,4.22c-.455.4-.893.816-1.336,1.227a1.925,1.925,0,0,1-3.256-.62.608.608,0,0,0-.109-.123Z" transform="translate(-2502.468 -838.501)" fill="#ff8f00"/>
      <path id="Path_9304" data-name="Path 9304" d="M2566.9,860.578a1.959,1.959,0,0,1-.57,1.437c-3.367,3.276-5.968,7.15-8.649,10.971a84.9,84.9,0,0,1-22.263,21.794,59.228,59.228,0,0,0-9.3,7.46,1.946,1.946,0,0,1-2.083.57,1.846,1.846,0,0,1-1.309-1.58,1.992,1.992,0,0,1,.7-1.773,54.709,54.709,0,0,1,8.606-7.024,86.929,86.929,0,0,0,17.09-14.789,107.519,107.519,0,0,0,8.06-10.7,54.125,54.125,0,0,1,6.385-7.621,1.934,1.934,0,0,1,3.338,1.256Z" transform="translate(-2520.329 -856.328)" fill="#ff8f00"/>
      <path id="Path_9305" data-name="Path 9305" d="M2616.727,995.043a1.868,1.868,0,0,1,.505-1.346c3.974-3.822,6.8-8.532,10.059-12.911a84.081,84.081,0,0,1,20.161-19.405,66.943,66.943,0,0,0,10.119-8.031,1.935,1.935,0,1,1,2.673,2.788,64.2,64.2,0,0,1-9.988,8.007,83.206,83.206,0,0,0-22.941,23.3,55.786,55.786,0,0,1-7.168,8.79,1.934,1.934,0,0,1-2.941.03A1.913,1.913,0,0,1,2616.727,995.043Z" transform="translate(-2603.312 -939.305)" fill="#ff8f00"/>
      <path id="Path_9306" data-name="Path 9306" d="M2571.609,950.028a1.916,1.916,0,0,1-1.725-1.17,1.877,1.877,0,0,1,.3-2.025,4.657,4.657,0,0,1,.365-.38q19.9-19.9,39.8-39.81a2.09,2.09,0,0,1,2.023-.766,1.907,1.907,0,0,1,1.159,3.018,4.441,4.441,0,0,1-.473.518q-19.881,19.884-39.761,39.77A2.374,2.374,0,0,1,2571.609,950.028Z" transform="translate(-2561.818 -897.924)" fill="#ff8f00"/>
      <path id="Path_9307" data-name="Path 9307" d="M2683.119,1056.286a1.85,1.85,0,0,1-1.715-1.106,1.788,1.788,0,0,1,.323-2.113,29.37,29.37,0,0,0,2.527-3,30.819,30.819,0,0,0,2.9-5.4,40.442,40.442,0,0,1,5.652-9.586,39.57,39.57,0,0,1,14.985-11.5,30.417,30.417,0,0,0,7-3.847c.706-.557,1.369-1.161,2.021-1.777a1.927,1.927,0,0,1,2.862-.1,1.983,1.983,0,0,1-.2,2.9,28.511,28.511,0,0,1-9.062,5.894,36.791,36.791,0,0,0-9.363,5.561,35.735,35.735,0,0,0-10.019,13.282,32.6,32.6,0,0,1-4.64,8.153c-.584.708-1.194,1.393-1.845,2.04A1.858,1.858,0,0,1,2683.119,1056.286Z" transform="translate(-2660.212 -996.287)" fill="#ff8f00"/>
    </g>
  </g>
</svg>
