<svg xmlns="http://www.w3.org/2000/svg" xmlns:xlink="http://www.w3.org/1999/xlink" width="24.888" height="60" viewBox="0 0 24.888 60">
  <defs>
    <clipPath id="clip-path">
      <path id="Path_9269" data-name="Path 9269" d="M84.676,245.5a6.819,6.819,0,0,1-.928-1.377,16.27,16.27,0,0,1-.377-2.484,7.494,7.494,0,0,0-.618-3.209,11.508,11.508,0,0,1-1.123-4.339l-.044-4.771c-.328-3.253-2.729-3.281-2.729-3.281-1.875-.279-2.491-.8-2.684-1.035l.03,0s-1.767-2.709-1-3.847a5.493,5.493,0,0,0,.975-2.023,3.147,3.147,0,0,0-1.007-2.554,3.913,3.913,0,0,0-3.316-1.222,3.742,3.742,0,0,0-2.773,1.164,2.886,2.886,0,0,0-.785,2.478c.027.256.4.541.147,1.041l-.512,1.138s-.007.293.45.3c0,0,.118.012.086.266v.365s.016.113.216.172l-.02.113s-.1.119.082.369a.457.457,0,0,1,.12.445l.106.568s.21.242,1.035.127c.29-.043.821-.191,1.142.205,0,0,.052.457.107.795h-.082s-.336.785-2.757,1.142c0,0-2.4.025-2.734,3.283l-.041,4.769a11.559,11.559,0,0,1-1.124,4.339,7.548,7.548,0,0,0-.618,3.212,16.24,16.24,0,0,1-.376,2.482A6.772,6.772,0,0,1,62.6,245.5c-.688.859-1.852,2.652-1.23,2.853,0,0,.48.045,1.124-1.213a7.5,7.5,0,0,1-.527,1.892c-.1.268-.526,1.611.166,1.125,0,0,.315-.22.733-1.6,0,0-.22,2.32.027,2.441.324.156.5-.3.65-2.336,0,0,.147-.652.218,1.853,0,.127.195.772.458.225a6.764,6.764,0,0,0,.124-2.094s.288,1.582.548,1.582c0,0,.314.369.19-1.594a10.117,10.117,0,0,1,.1-1.18l.032-.754s-.078-.865-.078-1.218a7.982,7.982,0,0,1,1.124-2.511s1.695-3,1.586-4.97a6.448,6.448,0,0,1,.656-2.939s.485,5.31.156,6.8c0,0-1.526,3.663-1.19,6.4a77.93,77.93,0,0,0,1.213,8.091c.25.887.1,3.125.3,3.685.088.24.042.464-.151,1.019-.689,1.922-.6,3.279,1.122,8.382a6.118,6.118,0,0,1,.265,3.164s-1.1,2.261-.394,2.306c0,0,.059.148.292.031a.723.723,0,0,0,.792.178.585.585,0,0,0,.7.036.5.5,0,0,0,.645.059s.5.333.794-.03c0,0,.531.125-.412-2.26a30.508,30.508,0,0,0-.554-3.015,12.137,12.137,0,0,1-.032-4.069,12.886,12.886,0,0,0-.178-3.7,13.2,13.2,0,0,1,.469-3.533,77,77,0,0,0,.966-8.587l.291.1a.6.6,0,0,0,.34-.1,77.053,77.053,0,0,0,.975,8.587,13.284,13.284,0,0,1,.464,3.533,13.093,13.093,0,0,0-.178,3.7,12.15,12.15,0,0,1-.026,4.069,28.7,28.7,0,0,0-.558,3.015c-.943,2.378-.41,2.26-.41,2.26.291.363.793.03.793.03a.49.49,0,0,0,.64-.059.582.582,0,0,0,.707-.036.727.727,0,0,0,.793-.178c.234.123.291-.031.291-.031.708-.045-.393-2.306-.393-2.306a6.087,6.087,0,0,1,.266-3.164c1.717-5.107,1.807-6.46,1.123-8.382-.2-.553-.246-.779-.156-1.019.209-.555.06-2.8.309-3.685a80.933,80.933,0,0,0,1.208-8.094c.332-2.734-1.193-6.4-1.193-6.4-.328-1.49.156-6.8.156-6.8A6.454,6.454,0,0,1,79.41,238c-.113,1.967,1.586,4.97,1.586,4.97a8.094,8.094,0,0,1,1.122,2.511c0,.357-.077,1.218-.077,1.218l.03.754a10.36,10.36,0,0,1,.107,1.18c-.127,1.959.183,1.594.183,1.594.267,0,.555-1.582.555-1.582a6.77,6.77,0,0,0,.123,2.094c.265.543.456-.1.458-.225.067-2.506.214-1.852.214-1.852.147,2.034.329,2.49.65,2.334.246-.123.021-2.441.021-2.441.422,1.375.738,1.6.738,1.6.692.484.266-.859.169-1.125a7.324,7.324,0,0,1-.53-1.892c.653,1.265,1.137,1.217,1.137,1.217C86.525,248.149,85.36,246.358,84.676,245.5Z" transform="translate(-61.189 -215.352)" fill="none"/>
    </clipPath>
  </defs>
  <g id="Group_4432" data-name="Group 4432" transform="translate(-155 -1891)">
    <g id="Group_3695" data-name="Group 3695" transform="translate(93.811 1675.648)">
      <g id="Group_3696" data-name="Group 3696" transform="translate(61.189 215.352)" clip-path="url(#clip-path)">
        <g id="Group_3695-2" data-name="Group 3695" transform="translate(-3.212 -12.134)">
          <g id="Rectangle_2542-4" data-name="Rectangle 2542-4">
            <rect id="Rectangle_2548" data-name="Rectangle 2548" width="31.406" height="72.805" rx="5" fill="#efeff4"/>
            <rect id="Rectangle_2549" data-name="Rectangle 2549" width="31.049" height="72.582" rx="4.5" transform="translate(0.177 0.113)" fill="#efeff4"/>
          </g>
          <path id="Path_9270" data-name="Path 9270" d="M15.7,72.805V34.417" fill="none" stroke="#ff8f00" stroke-width="31"/>
        </g>
      </g>
    </g>
    <g id="power" transform="translate(10.002 1816.918)">
      <g id="Group_3699" data-name="Group 3699" transform="translate(150.998 90.999)">
        <g id="Group_3698" data-name="Group 3698" transform="translate(0 0)">
          <path id="Path_9269-2" data-name="Path 9269" d="M163.805,100.87a.915.915,0,0,0-.6-.659l-4.5-1.5,3.193-6.387a.916.916,0,0,0-1.468-1.058l-9.165,9.165a.916.916,0,0,0,.358,1.517l4.5,1.5-3.193,6.387a.916.916,0,0,0,1.468,1.058l9.165-9.165A.917.917,0,0,0,163.805,100.87Z" transform="translate(-150.998 -90.999)" fill="#efeff4" stroke="#ff8f00" stroke-width="1"/>
        </g>
      </g>
    </g>
  </g>
</svg>
