<svg xmlns="http://www.w3.org/2000/svg" width="70.656" height="60" viewBox="0 0 70.656 60">
  <g id="ZtHQFO.tif" transform="translate(-1857.182 -707.463)">
    <g id="Group_3713" data-name="Group 3713" transform="translate(1857.182 707.463)">
      <path id="Path_9312" data-name="Path 9312" d="M1889.905,872.665c1.788-2.131,3.463-4.131,5.142-6.128q9.066-10.786,18.125-21.578a8.338,8.338,0,0,1,5.471-3.254,7.58,7.58,0,0,1,7.077,2.7c4.674,5.49,9.29,11.029,13.929,16.548l8.761,10.423c.327.39.651.783,1.071,1.289Zm28.493-24.215a1.642,1.642,0,0,0-1.6,1.672,1.637,1.637,0,0,0,3.274-.053A1.721,1.721,0,0,0,1918.4,848.451Zm4.3,10.571a1.672,1.672,0,0,0-1.607,1.591,1.62,1.62,0,0,0,1.61,1.649,1.668,1.668,0,0,0,1.632-1.566A1.718,1.718,0,0,0,1922.7,859.022Zm-9.846,1.638a1.646,1.646,0,0,0-1.64-1.64,1.621,1.621,0,0,0,.073,3.241A1.606,1.606,0,0,0,1912.857,860.66Zm12.8-3.237a1.666,1.666,0,0,0,1.574-1.619,1.7,1.7,0,0,0-1.655-1.642,1.665,1.665,0,0,0-1.557,1.726A1.625,1.625,0,0,0,1925.655,857.423Zm6.508,4a1.611,1.611,0,0,0-1.647-1.605,1.664,1.664,0,0,0-1.576,1.616,1.7,1.7,0,0,0,1.672,1.627A1.648,1.648,0,0,0,1932.163,861.426Zm-29.008,6.485a1.587,1.587,0,0,0,1.634,1.616,1.6,1.6,0,1,0-.073-3.2A1.528,1.528,0,0,0,1903.155,867.911Zm11.831-15.356a1.6,1.6,0,1,0,1.592,1.585A1.6,1.6,0,0,0,1914.986,852.556Zm.4,8.087a1.6,1.6,0,1,0,3.193.011,1.636,1.636,0,0,0-1.645-1.628A1.578,1.578,0,0,0,1915.385,860.642Zm4.4-6.531a1.523,1.523,0,0,0-1.494,1.634,1.6,1.6,0,1,0,3.2-.076A1.657,1.657,0,0,0,1919.784,854.112Z" transform="translate(-1884.251 -818.451)" fill="#ff8f00"/>
      <path id="Path_9313" data-name="Path 9313" d="M1878.927,1038.515H1859.79c-.316,0-.633.016-.948-.009a1.8,1.8,0,0,1-1.657-1.592,1.725,1.725,0,0,1,1.494-1.727,6.984,6.984,0,0,1,1.117-.048q19.051,0,38.1,0a4.957,4.957,0,0,1,1.456.1,1.679,1.679,0,0,1,1.232,1.749,1.569,1.569,0,0,1-1.487,1.512c-.456.043-.919.017-1.379.018Z" transform="translate(-1857.182 -978.522)" fill="#ff8f00"/>
      <path id="Path_9314" data-name="Path 9314" d="M2179.789,1038.529c-2.037,0-4.075,0-6.113,0a1.811,1.811,0,0,1-2.014-1.667,1.787,1.787,0,0,1,1.989-1.7q6.2-.019,12.4,0a1.717,1.717,0,0,1,1.938,1.717c-.017,1.01-.775,1.645-2,1.649C2183.922,1038.535,2181.855,1038.53,2179.789,1038.529Z" transform="translate(-2117.331 -978.538)" fill="#ff8f00"/>
      <path id="Path_9315" data-name="Path 9315" d="M2131.8,1038.548a6.135,6.135,0,0,1-.688,0,1.8,1.8,0,0,1-1.57-1.584,1.679,1.679,0,0,1,1.4-1.7,5.719,5.719,0,0,1,1.54-.039,1.649,1.649,0,0,1,1.542,1.743,1.7,1.7,0,0,1-1.71,1.593c-.172.009-.344,0-.517,0Z" transform="translate(-2082.484 -978.564)" fill="#ff8f00"/>
      <path id="Path_9316" data-name="Path 9316" d="M2074.666,783.079a1.723,1.723,0,0,1-1.613,1.693,1.676,1.676,0,0,1-.038-3.353A1.735,1.735,0,0,1,2074.666,783.079Z" transform="translate(-2034.363 -768.643)" fill="#ff8f00"/>
      <path id="Path_9317" data-name="Path 9317" d="M2042.111,804.087a1.641,1.641,0,0,1,1.668,1.6,1.645,1.645,0,1,1-3.289.044A1.63,1.63,0,0,1,2042.111,804.087Z" transform="translate(-2008.82 -787.393)" fill="#ff8f00"/>
      <path id="Path_9318" data-name="Path 9318" d="M2040.5,772.436a1.645,1.645,0,1,1,1.6,1.7A1.69,1.69,0,0,1,2040.5,772.436Z" transform="translate(-2008.825 -759.84)" fill="#ff8f00"/>
      <path id="Path_9319" data-name="Path 9319" d="M2054.34,710.757a1.648,1.648,0,1,1-.014-3.294,1.657,1.657,0,0,1,1.658,1.632A1.706,1.706,0,0,1,2054.34,710.757Z" transform="translate(-2018.864 -707.463)" fill="#ff8f00"/>
    </g>
  </g>
</svg>
