<svg xmlns="http://www.w3.org/2000/svg" width="44.53" height="60" viewBox="0 0 44.53 60">
  <g id="sugar-cube" transform="translate(-0.5 0.001)">
    <g id="Group_3703" data-name="Group 3703" transform="translate(8.625 3.581)">
      <path id="Path_9287" data-name="Path 9287" d="M107.377,37.179a1.645,1.645,0,0,0-.6-2.241L99.2,30.566,93.56,40.342a1.645,1.645,0,0,0,.6,2.241l7.572,4.372Zm0,0" transform="translate(-90.586 -30.566)" fill="#f0f0f0" fill-rule="evenodd"/>
      <path id="Path_9288" data-name="Path 9288" d="M277,207.629l-3.356-12.524-7.775,2.083a1.645,1.645,0,0,0-1.16,2.009l3.356,12.524,7.775-2.083A1.645,1.645,0,0,0,277,207.629Zm0,0" transform="translate(-241.825 -175.824)" fill="#f0f0f0" fill-rule="evenodd"/>
      <path id="Path_9289" data-name="Path 9289" d="M77.273,339.492l-6.964,6.964a1.646,1.646,0,0,0,0,2.32l6.964,6.964,6.964-6.964a1.646,1.646,0,0,0,0-2.32Zm0,0" transform="translate(-69.83 -303.29)" fill="#f0f0f0" fill-rule="evenodd"/>
    </g>
    <path id="Path_9290" data-name="Path 9290" d="M12.591,329.82A2.8,2.8,0,0,1,10.6,329l-9.28-9.28a2.818,2.818,0,0,1,0-3.978l9.28-9.281a2.817,2.817,0,0,1,3.978,0l9.281,9.281a2.818,2.818,0,0,1,0,3.978L14.579,329A2.8,2.8,0,0,1,12.591,329.82Zm0-21.838a.467.467,0,0,0-.331.135L2.979,317.4a.474.474,0,0,0,0,.663l9.281,9.281a.475.475,0,0,0,.663,0l9.28-9.281a.473.473,0,0,0,0-.663l-9.28-9.28A.467.467,0,0,0,12.591,307.982Zm0,0" transform="translate(0 -269.821)" fill="#ff8f00"/>
    <path id="Path_9291" data-name="Path 9291" d="M201.53,195.115a2.818,2.818,0,0,1-2.717-2.085l-3.4-12.678a2.815,2.815,0,0,1,1.989-3.444l12.678-3.4a2.816,2.816,0,0,1,3.444,1.989l3.4,12.677a2.817,2.817,0,0,1-1.989,3.444l-3.513.942a1.172,1.172,0,0,1-.607-2.264l3.513-.941a.475.475,0,0,0,.331-.574l-3.4-12.677a.475.475,0,0,0-.574-.331l-12.677,3.4a.475.475,0,0,0-.331.574l3.4,12.678a.475.475,0,0,0,.574.331l1.358-.364a1.172,1.172,0,0,1,.607,2.264l-1.359.364A2.79,2.79,0,0,1,201.53,195.115Zm6.305-1.632a1.172,1.172,0,0,1-.3-2.3l.031-.008a1.172,1.172,0,0,1,.6,2.265l-.031.008A1.166,1.166,0,0,1,207.835,193.483Zm0,0" transform="translate(-171.989 -153.094)" fill="#ff8f00"/>
    <path id="Path_9292" data-name="Path 9292" d="M99.949,431.094a1.172,1.172,0,0,1-1.171-1.172v-.027a1.172,1.172,0,1,1,2.343,0v.027A1.172,1.172,0,0,1,99.949,431.094Zm0,0" transform="translate(-86.76 -378.482)" fill="#73ba5e"/>
    <path id="Path_9293" data-name="Path 9293" d="M72.949,384.094a1.172,1.172,0,0,1-1.172-1.171v-.028a1.172,1.172,0,0,1,2.344,0v.028A1.172,1.172,0,0,1,72.949,384.094Zm0,0" transform="translate(-62.925 -336.99)" fill="#73ba5e"/>
    <path id="Path_9294" data-name="Path 9294" d="M121.945,389.094a1.172,1.172,0,0,1-1.172-1.171v-.028a1.172,1.172,0,0,1,2.344,0v.028A1.172,1.172,0,0,1,121.945,389.094Zm0,0" transform="translate(-106.179 -341.404)" fill="#73ba5e"/>
    <path id="Path_9295" data-name="Path 9295" d="M263.941,293.1a1.172,1.172,0,0,1-1.172-1.172V291.9a1.172,1.172,0,0,1,2.344,0v.027A1.172,1.172,0,0,1,263.941,293.1Zm0,0" transform="translate(-231.535 -256.658)" fill="#73ba5e"/>
    <path id="Path_9296" data-name="Path 9296" d="M303.941,237.1a1.172,1.172,0,0,1-1.172-1.172V235.9a1.172,1.172,0,0,1,2.344,0v.028A1.172,1.172,0,0,1,303.941,237.1Zm0,0" transform="translate(-266.847 -207.22)" fill="#73ba5e"/>
    <path id="Path_9297" data-name="Path 9297" d="M125.945,119.1a1.172,1.172,0,0,1-1.172-1.172V117.9a1.172,1.172,0,0,1,2.344,0v.028A1.172,1.172,0,0,1,125.945,119.1Zm0,0" transform="translate(-109.71 -103.052)" fill="#73ba5e"/>
    <path id="Path_9298" data-name="Path 9298" d="M103.215,85.356a1.172,1.172,0,0,1-1.172-1.172v-.027a1.172,1.172,0,1,1,2.344,0v.027A1.172,1.172,0,0,1,103.215,85.356Zm0,0" transform="translate(-89.643 -73.26)" fill="#73ba5e"/>
    <path id="Path_9299" data-name="Path 9299" d="M157.215,79.356a1.172,1.172,0,0,1-1.172-1.172v-.027a1.172,1.172,0,0,1,2.344,0v.027A1.172,1.172,0,0,1,157.215,79.356Zm0,0" transform="translate(-137.315 -67.963)" fill="#73ba5e"/>
    <path id="Path_9300" data-name="Path 9300" d="M38.178,23.552a2.792,2.792,0,0,1-1.4-.376L25.41,16.613a2.816,2.816,0,0,1-1.03-3.842L26.2,9.622a1.172,1.172,0,1,1,2.029,1.172L26.41,13.943a.475.475,0,0,0,.172.64l11.366,6.562a.474.474,0,0,0,.64-.172L45.15,9.608a.474.474,0,0,0-.172-.64L33.613,2.405a.473.473,0,0,0-.64.172l-.7,1.218a1.172,1.172,0,1,1-2.03-1.172l.7-1.218A2.816,2.816,0,0,1,34.784.376L46.151,6.938a2.817,2.817,0,0,1,1.03,3.842L40.618,22.146A2.814,2.814,0,0,1,38.178,23.552ZM28.9,8.464A1.173,1.173,0,0,1,27.883,6.7l.016-.027a1.172,1.172,0,0,1,2.027,1.176l-.016.027A1.171,1.171,0,0,1,28.9,8.464Zm0,0" transform="translate(-20.75 0)" fill="#ff8f00"/>
  </g>
</svg>
